Did not see this here so enjoy. 				

								

								

All credit to the original uploader. 				

								

								

I remuxed this with an older version of MKV Merge so it will 

be more compatible.						

								

								

								

TTLTTLTTLTTLTTLTTLTTLTTLTTLTTLTTLTTLTTLTTLTTL			

								

								

								

								

New_Tricks_SO9_E01_A_Death_In_The_Family_720p.HDTV.x264_TTL.mk

v
Format                           : Matroska
File size                        : 926 MiB
Duration                         : 58mn 14s
Overall bit rate                 : 2 223 Kbps
Encoded date                     : UTC 2012-08-28 13:27:34
Writing application              : mkvmerge v2.4.0 ('Fumbling 

Towards Ecstasy') built on Oct 11 2008 20:13:15
Writing library                  : libebml v0.7.7 + 

libmatroska v0.8.1

Video
ID                               : 1
Format                           : AVC
Format/Info                      : Advanced Video Codec
Format profile                   : High@L4.1
Format settings, CABAC           : Yes
Format settings, ReFrames        : 5 frames
Muxing mode                      : Container 

profile=Unknown@4.1
Codec ID                         : V_MPEG4/ISO/AVC
Duration                         : 58mn 14s
Bit rate                         : 1 987 Kbps
Width                            : 1 280 pixels
Height                           : 720 pixels
Display aspect ratio             : 16:9
Frame rate                       : 25.000 fps
Color space                      : YUV
Chroma subsampling               : 4:2:0
Bit depth                        : 8 bits
Scan type                        : Progressive
Bits/(Pixel*Frame)               : 0.086
Stream size                      : 828 MiB (89%)
Writing library                  : x264 core 125 r2208 d9d2288

Language                         : English

Audio
ID                               : 2
Format                           : AC-3
Format/Info                      : Audio Coding 3
Mode extension                   : CM (complete main)
Codec ID                         : A_AC3
Duration                         : 58mn 14s
Bit rate mode                    : Constant
Bit rate                         : 192 Kbps
Channel(s)                       : 2 channels
Channel positions                : Front: L R
Sampling rate                    : 48.0 KHz
Stream size                      : 80.0 MiB (9%)

 